<svg width="36" height="36" viewBox="0 0 36 36" fill="none" xmlns="http://www.w3.org/2000/svg">
<rect width="36" height="36" rx="2" fill="white"/>
<g clip-path="url(#clip0_9_291)">
<path d="M31.9712 4.36972C31.9246 4.08983 31.6447 3.94988 31.4114 4.0432L19.6053 7.67582C19.2747 7.14829 18.6884 6.79542 18.0233 6.79542C16.997 6.79542 16.1574 7.63509 16.1574 8.66134C16.1574 8.71027 16.1599 8.75854 16.1636 8.80653L4.35533 12.4399C4.07544 12.4865 3.93549 12.7664 4.02881 12.9997C4.12212 13.1863 4.3087 13.3262 4.49527 13.3262C4.54191 13.3262 4.58859 13.3262 4.58859 13.3262L16.4586 9.67387C16.71 10.0602 17.0999 10.3491 17.5568 10.4678V13.3262H10.1397C9.67325 13.3262 9.25342 13.5128 8.97353 13.8394C7.92782 15.0158 7.11679 16.253 6.53826 17.5246H6.50114L6.36119 17.8045C5.42821 20.0436 5.195 22.3294 5.66147 24.6152L5.75478 24.9884H5.7638C6.29532 27.2568 7.52214 29.4792 9.44005 31.5192C9.71994 31.7991 10.1398 31.9856 10.5596 31.9856H25.4871C25.9069 31.9856 26.3267 31.7991 26.6533 31.5192C28.743 29.2775 30.0046 26.8269 30.4419 24.3439C30.8747 22.1486 30.5815 19.9551 29.6854 17.8045L29.5674 17.5685C28.9898 16.2788 28.1738 15.0266 27.1197 13.8394C26.8398 13.5129 26.42 13.3263 25.9535 13.3263H18.4898V10.4679C19.2923 10.2594 19.8893 9.52676 19.8893 8.66139C19.8893 8.62318 19.8877 8.58535 19.8854 8.54774L31.6447 4.9295C31.9246 4.88287 32.0645 4.60298 31.9712 4.36972ZM7.10761 18.4576H11.4459L11.4925 18.5042L11.4459 24.0554H6.50114C6.17462 22.1894 6.40788 20.2769 7.10761 18.4576ZM29.5455 24.0554L24.5541 24.0088L24.6007 18.4576H28.939C29.6388 20.2769 29.872 22.1894 29.5455 24.0554ZM26.4201 14.4458C27.2967 15.4399 27.9974 16.4708 28.5235 17.5246H24.6008C24.041 17.5246 23.6212 17.991 23.6212 18.5042V24.0087C23.6212 24.5685 24.0876 24.9883 24.6008 24.9883H29.3664C28.8402 27.0091 27.7036 28.9982 25.9536 30.866C25.8137 31.006 25.6737 31.0526 25.4871 31.0526H10.5596C10.373 31.0526 10.1863 31.006 10.0931 30.866C8.34312 28.9982 7.20644 27.0091 6.68034 24.9883H11.4459C12.0057 24.9883 12.4255 24.5685 12.4255 24.0553V18.5042C12.4255 17.9444 11.9591 17.5246 11.4459 17.5246H7.52318C8.04929 16.4708 8.75 15.4399 9.62662 14.4458C9.71994 14.3525 9.90651 14.2592 10.0931 14.2592H25.9535C26.1402 14.2592 26.3267 14.3058 26.4201 14.4458ZM18.0233 9.59438C17.5102 9.59438 17.0904 9.17454 17.0904 8.66139C17.0904 8.14824 17.5102 7.72841 18.0233 7.72841C18.5365 7.72841 18.9563 8.14824 18.9563 8.66139C18.9563 9.17454 18.5364 9.59438 18.0233 9.59438Z" fill="#0A2540"/>
<path d="M13.7783 18.784V23.7288C13.7783 24.4285 14.3847 24.9883 15.0844 24.9883H20.9621C21.6619 24.9883 22.2216 24.4285 22.175 23.6821V18.784C22.175 18.0843 21.6152 17.5245 20.9155 17.5245H15.0845C14.3381 17.5245 13.7783 18.0843 13.7783 18.784ZM21.2421 18.784V23.6821C21.2421 23.8687 21.1021 24.0087 20.9156 24.0087H15.0845C14.8512 24.0087 14.7113 23.8687 14.7113 23.6821V18.784C14.7113 18.5975 14.8979 18.4575 15.0845 18.4575H20.9156C21.1021 18.4575 21.2421 18.5975 21.2421 18.784Z" fill="#0A2540"/>
<path d="M19.8893 28.7202H16.1574C15.8775 28.7202 15.6909 28.9068 15.6909 29.1867C15.6909 29.4666 15.8775 29.6531 16.1574 29.6531H19.8893C20.1692 29.6531 20.3557 29.4666 20.3557 29.1867C20.3557 28.9068 20.1692 28.7202 19.8893 28.7202Z" fill="#0A2540"/>
<path d="M20.8223 26.3878H15.2244C14.9445 26.3878 14.758 26.5744 14.758 26.8543C14.758 27.1342 14.9445 27.3208 15.2244 27.3208H20.8223C21.1021 27.3208 21.2887 27.1342 21.2887 26.8543C21.2887 26.5744 21.1021 26.3878 20.8223 26.3878Z" fill="#0A2540"/>
</g>
<defs>
<clipPath id="clip0_9_291">
<rect width="28" height="28" fill="white" transform="translate(4 4)"/>
</clipPath>
</defs>
</svg>
