<svg width="36" height="36" viewBox="0 0 36 36" fill="none" xmlns="http://www.w3.org/2000/svg">
<rect width="36" height="36" rx="2" fill="white"/>
<g clip-path="url(#clip0_9_283)">
<path d="M18 4C10.2681 4 4 10.2681 4 18C4 25.7319 10.2681 32 18 32C25.7319 32 32 25.7319 32 18C32 10.2681 25.7319 4 18 4ZM25.8628 17.5625C25.8024 15.1204 25.2441 12.8034 24.2821 10.7082C25.4423 10.2611 26.5435 9.6945 27.5699 9.02206C29.6804 11.2708 31.006 14.2616 31.1145 17.5625H25.8628ZM18.5832 31.1101C18.5351 31.1123 18.4861 31.1123 18.4375 31.1141V25.8903C19.8918 25.9284 21.3018 26.1445 22.6397 26.5334C21.5805 28.2992 20.2002 29.8493 18.5832 31.1101ZM23.4902 26.8117C24.489 27.1621 25.4423 27.6066 26.344 28.1321C24.5979 29.5714 22.4726 30.5659 20.1411 30.9487C21.4571 29.7517 22.5868 28.3565 23.4902 26.8117ZM13.3599 26.5334C14.6982 26.1441 16.1082 25.9284 17.5625 25.8903V31.1136C17.5139 31.1119 17.4649 31.1119 17.4168 31.1097C15.7994 29.8493 14.4195 28.2992 13.3599 26.5334ZM15.8584 30.9482C13.527 30.5659 11.4016 29.5714 9.65556 28.1316C10.5577 27.6066 11.5106 27.1617 12.5094 26.8117C13.4128 28.3565 14.5429 29.7517 15.8584 30.9482ZM4.88594 17.5625C4.99444 14.2616 6.31962 11.2708 8.43056 9.02206C9.45694 9.69406 10.5577 10.2606 11.7184 10.7082C10.7559 12.8034 10.1976 15.1204 10.1372 17.5625H4.88594ZM23.0619 10.2108C21.5984 10.6784 20.0457 10.9414 18.4375 10.9834V4.88594C18.4861 4.88769 18.5351 4.88769 18.5832 4.88987C20.4242 6.32487 21.9581 8.13569 23.0619 10.2108ZM20.1416 5.05175C22.7421 5.47875 25.0844 6.66875 26.932 8.38637C25.98 8.99494 24.965 9.51075 23.894 9.91719C22.9341 8.08012 21.6614 6.43338 20.1416 5.05175ZM17.5625 4.88594V10.9834C15.9538 10.9414 14.4011 10.6789 12.9381 10.2108C14.0419 8.13569 15.5758 6.32487 17.4168 4.88987C17.4649 4.88769 17.5139 4.88769 17.5625 4.88594ZM12.1064 9.91719C11.0354 9.51075 10.02 8.99494 9.06844 8.38637C10.916 6.66875 13.2579 5.47875 15.8589 5.05175C14.3386 6.43338 13.0659 8.08012 12.1064 9.91719ZM12.5452 11.0039C14.1299 11.5241 15.8142 11.8234 17.5625 11.8667V17.5625H11.0136C11.0744 15.2236 11.6138 13.0055 12.5452 11.0039ZM17.5625 18.4375V25.0157C15.9508 25.056 14.3928 25.3067 12.9184 25.7547C11.7578 23.5615 11.0823 21.0752 11.0136 18.4375H17.5625ZM18.4375 25.0157V18.4375H24.9864C24.9182 21.0752 24.2423 23.5615 23.0816 25.7551C21.6072 25.3067 20.0492 25.056 18.4375 25.0157ZM18.4375 17.5625V11.8663C20.1858 11.8229 21.8701 11.5241 23.4548 11.0035C24.3862 13.0051 24.9256 15.2236 24.9864 17.5621L18.4375 17.5625ZM4.88594 18.4375H10.1372C10.2046 21.1732 10.8985 23.7514 12.0828 26.0364C10.9908 26.4298 9.95175 26.9307 8.97263 27.5222C6.54931 25.2244 5.00363 22.0128 4.88594 18.4375ZM27.0274 27.5226C26.0483 26.9307 25.0092 26.4302 23.9172 26.0369C25.1015 23.7514 25.7954 21.1736 25.8628 18.4379H31.1141C30.9964 22.0127 29.4507 25.2244 27.0274 27.5226Z" fill="#0A2540"/>
</g>
<defs>
<clipPath id="clip0_9_283">
<rect width="28" height="28" fill="white" transform="translate(4 4)"/>
</clipPath>
</defs>
</svg>
