<svg width="36" height="36" viewBox="0 0 36 36" fill="none" xmlns="http://www.w3.org/2000/svg">
<rect width="36" height="36" rx="2" fill="white"/>
<path d="M28.0625 27.625C28.0625 27.8666 27.8668 28.0625 27.625 28.0625H8.83276L8.83131 28.0627L8.83022 28.0625H8.375C8.13341 28.0625 7.9375 27.8666 7.9375 27.625V8.375C7.9375 8.13341 8.13341 7.9375 8.375 7.9375C8.61659 7.9375 8.8125 8.13341 8.8125 8.375V26.4946C9.26934 25.3567 10.021 23.4978 10.4559 22.4957C11.9205 19.1209 12.5925 18.4428 13.2024 18.4428C13.8533 18.4428 14.1817 19.051 14.4713 19.5874C14.617 19.8574 14.7678 20.1367 14.9304 20.2896C15.0112 20.3656 15.1744 20.4885 15.3647 20.4481C15.5681 20.4062 15.765 20.186 15.9197 19.8284C15.9877 19.6716 16.1348 19.1506 16.3053 18.5475C17.5298 14.2154 18.4202 11.868 19.6167 11.868C20.7617 11.868 21.2227 13.5742 21.6298 15.0796C21.7837 15.6491 22.0165 16.51 22.1755 16.6576C22.2301 16.699 22.2588 16.7033 22.2588 16.7033C22.4745 16.6476 22.8407 15.7279 23.0167 15.2861C23.0906 15.0996 23.1641 14.9154 23.238 14.7435C23.291 14.62 23.3444 14.4831 23.4016 14.3372C23.8891 13.089 24.7056 11 27.625 11C27.8668 11 28.0625 11.1959 28.0625 11.4375C28.0625 11.6791 27.8668 11.875 27.625 11.875C25.3029 11.875 24.7004 13.4167 24.2164 14.6557C24.1557 14.8113 24.0985 14.9572 24.0421 15.0887C23.9712 15.2539 23.9007 15.4307 23.8297 15.6095C23.4696 16.5145 23.129 17.3692 22.4869 17.5469C22.2904 17.602 21.9836 17.6118 21.6414 17.3504C21.2757 17.0716 21.0873 16.4256 20.7852 15.3077C20.543 14.4114 20.0918 12.743 19.6167 12.743C19.2668 12.7517 18.5546 13.807 17.1474 18.7855C16.9283 19.561 16.8097 19.975 16.723 20.1757C16.3757 20.9792 15.889 21.2334 15.5421 21.305C15.1195 21.3925 14.679 21.2541 14.331 20.927C14.0653 20.6771 13.8803 20.3345 13.7013 20.0031C13.572 19.7636 13.3313 19.3178 13.2025 19.3178C13.0779 19.373 12.5635 19.8367 11.2587 22.8439C10.7771 23.9535 9.89943 26.1336 9.47741 27.1875H27.625C27.8668 27.1875 28.0625 27.3834 28.0625 27.625ZM27.625 14.5H26.3125C26.0707 14.5 25.875 14.6959 25.875 14.9375C25.875 15.1791 26.0707 15.375 26.3125 15.375H27.625C27.8668 15.375 28.0625 15.1791 28.0625 14.9375C28.0625 14.6959 27.8668 14.5 27.625 14.5ZM27.625 17.5625H26.3125C26.0707 17.5625 25.875 17.7584 25.875 18C25.875 18.2416 26.0707 18.4375 26.3125 18.4375H27.625C27.8668 18.4375 28.0625 18.2416 28.0625 18C28.0625 17.7584 27.8668 17.5625 27.625 17.5625ZM27.625 20.625H26.3125C26.0707 20.625 25.875 20.8209 25.875 21.0625C25.875 21.3041 26.0707 21.5 26.3125 21.5H27.625C27.8668 21.5 28.0625 21.3041 28.0625 21.0625C28.0625 20.8209 27.8668 20.625 27.625 20.625ZM27.625 23.6875H26.3125C26.0707 23.6875 25.875 23.8834 25.875 24.125C25.875 24.3666 26.0707 24.5625 26.3125 24.5625H27.625C27.8668 24.5625 28.0625 24.3666 28.0625 24.125C28.0625 23.8834 27.8668 23.6875 27.625 23.6875Z" fill="#0A2540"/>
</svg>
