<svg width="82" height="15" viewBox="0 0 82 15" fill="none" xmlns="http://www.w3.org/2000/svg">
<path d="M5.33933 3.65485C6.07821 2.32937 6.44763 1.66663 6.99999 1.66663C7.55235 1.66663 7.92177 2.32936 8.66062 3.65484L8.85178 3.99776C9.06178 4.37442 9.16672 4.56275 9.33047 4.68702C9.49415 4.81128 9.69797 4.8574 10.1057 4.94966L10.4769 5.03364C11.9117 5.35829 12.6292 5.5206 12.7998 6.06947C12.9705 6.61831 12.4815 7.19027 11.5033 8.33407L11.2502 8.62999C10.9723 8.95503 10.8332 9.11754 10.7707 9.31862C10.7082 9.51969 10.7292 9.73652 10.7712 10.1702L10.8095 10.565C10.9574 12.0911 11.0313 12.8542 10.5845 13.1934C10.1376 13.5326 9.46592 13.2233 8.1225 12.6048L7.77495 12.4448C7.39322 12.269 7.20235 12.1811 6.99999 12.1811C6.79763 12.1811 6.60677 12.269 6.22503 12.4448L5.87748 12.6048C4.53405 13.2233 3.86235 13.5326 3.4155 13.1934C2.96864 12.8542 3.04259 12.0911 3.19047 10.565L3.22873 10.1702C3.27076 9.73652 3.29177 9.51969 3.22924 9.31862C3.16672 9.11754 3.02774 8.95503 2.74978 8.62999L2.49672 8.33407C1.51855 7.19027 1.02947 6.61831 1.20015 6.06947C1.37084 5.5206 2.08824 5.35829 3.52306 5.03364L3.89426 4.94966C4.30199 4.8574 4.50585 4.81128 4.66954 4.68702C4.83323 4.56275 4.93822 4.37442 5.14818 3.99776L5.33933 3.65485Z" fill="#FF7902"/>
<path d="M22.3393 3.65485C23.0782 2.32937 23.4476 1.66663 24 1.66663C24.5524 1.66663 24.9218 2.32936 25.6606 3.65484L25.8518 3.99776C26.0618 4.37442 26.1667 4.56275 26.3305 4.68702C26.4942 4.81128 26.698 4.8574 27.1057 4.94966L27.477 5.03364C28.9117 5.35829 29.6292 5.5206 29.7999 6.06947C29.9705 6.61831 29.4815 7.19027 28.5033 8.33407L28.2502 8.62999C27.9723 8.95503 27.8333 9.11754 27.7707 9.31862C27.7083 9.51969 27.7293 9.73652 27.7713 10.1702L27.8095 10.565C27.9574 12.0911 28.0314 12.8542 27.5845 13.1934C27.1376 13.5326 26.4659 13.2233 25.1225 12.6048L24.775 12.4448C24.3932 12.269 24.2024 12.1811 24 12.1811C23.7976 12.1811 23.6068 12.269 23.225 12.4448L22.8775 12.6048C21.5341 13.2233 20.8624 13.5326 20.4155 13.1934C19.9687 12.8542 20.0426 12.0911 20.1905 10.565L20.2287 10.1702C20.2708 9.73652 20.2918 9.51969 20.2293 9.31862C20.1667 9.11754 20.0278 8.95503 19.7498 8.62999L19.4967 8.33407C18.5186 7.19027 18.0295 6.61831 18.2002 6.06947C18.3709 5.5206 19.0883 5.35829 20.5231 5.03364L20.8943 4.94966C21.302 4.8574 21.5059 4.81128 21.6696 4.68702C21.8332 4.56275 21.9382 4.37442 22.1482 3.99776L22.3393 3.65485Z" fill="#FF7902"/>
<path d="M39.3393 3.65485C40.0782 2.32937 40.4476 1.66663 41 1.66663C41.5524 1.66663 41.9218 2.32936 42.6606 3.65484L42.8518 3.99776C43.0618 4.37442 43.1667 4.56275 43.3305 4.68702C43.4942 4.81128 43.698 4.8574 44.1057 4.94966L44.477 5.03364C45.9117 5.35829 46.6292 5.5206 46.7999 6.06947C46.9705 6.61831 46.4815 7.19027 45.5033 8.33407L45.2502 8.62999C44.9723 8.95503 44.8333 9.11754 44.7707 9.31862C44.7083 9.51969 44.7293 9.73652 44.7713 10.1702L44.8095 10.565C44.9574 12.0911 45.0314 12.8542 44.5845 13.1934C44.1376 13.5326 43.4659 13.2233 42.1225 12.6048L41.775 12.4448C41.3932 12.269 41.2024 12.1811 41 12.1811C40.7976 12.1811 40.6068 12.269 40.225 12.4448L39.8775 12.6048C38.5341 13.2233 37.8624 13.5326 37.4155 13.1934C36.9687 12.8542 37.0426 12.0911 37.1905 10.565L37.2287 10.1702C37.2708 9.73652 37.2918 9.51969 37.2293 9.31862C37.1667 9.11754 37.0278 8.95503 36.7498 8.62999L36.4967 8.33407C35.5186 7.19027 35.0295 6.61831 35.2002 6.06947C35.3709 5.5206 36.0883 5.35829 37.5231 5.03364L37.8943 4.94966C38.302 4.8574 38.5059 4.81128 38.6696 4.68702C38.8332 4.56275 38.9382 4.37442 39.1482 3.99776L39.3393 3.65485Z" fill="#FF7902"/>
<path d="M56.3393 3.65485C57.0782 2.32937 57.4476 1.66663 58 1.66663C58.5524 1.66663 58.9218 2.32936 59.6606 3.65484L59.8518 3.99776C60.0618 4.37442 60.1667 4.56275 60.3305 4.68702C60.4942 4.81128 60.698 4.8574 61.1057 4.94966L61.477 5.03364C62.9117 5.35829 63.6292 5.5206 63.7999 6.06947C63.9705 6.61831 63.4815 7.19027 62.5033 8.33407L62.2502 8.62999C61.9723 8.95503 61.8333 9.11754 61.7707 9.31862C61.7083 9.51969 61.7293 9.73652 61.7713 10.1702L61.8095 10.565C61.9574 12.0911 62.0314 12.8542 61.5845 13.1934C61.1376 13.5326 60.4659 13.2233 59.1225 12.6048L58.775 12.4448C58.3932 12.269 58.2024 12.1811 58 12.1811C57.7976 12.1811 57.6068 12.269 57.225 12.4448L56.8775 12.6048C55.5341 13.2233 54.8624 13.5326 54.4155 13.1934C53.9687 12.8542 54.0426 12.0911 54.1905 10.565L54.2287 10.1702C54.2708 9.73652 54.2918 9.51969 54.2293 9.31862C54.1667 9.11754 54.0278 8.95503 53.7498 8.62999L53.4967 8.33407C52.5186 7.19027 52.0295 6.61831 52.2002 6.06947C52.3709 5.5206 53.0883 5.35829 54.5231 5.03364L54.8943 4.94966C55.302 4.8574 55.5059 4.81128 55.6696 4.68702C55.8332 4.56275 55.9382 4.37442 56.1482 3.99776L56.3393 3.65485Z" fill="#FF7902"/>
<path d="M76.2239 3.89829L76.2239 3.89829C75.8463 3.22093 75.5896 2.7631 75.3634 2.46767C75.1374 2.17258 75.0364 2.16663 75 2.16663C74.9636 2.16663 74.8626 2.17258 74.6366 2.46768C74.4104 2.7631 74.1537 3.22094 73.7761 3.8983L73.5849 4.24121C73.5727 4.26307 73.5607 4.28479 73.5487 4.30635C73.3758 4.61782 73.2214 4.89584 72.9719 5.08526C72.7194 5.2769 72.4122 5.34584 72.0751 5.42147C72.0517 5.42671 72.0282 5.43198 72.0046 5.43733L72.0046 5.43733L71.6334 5.52132C70.899 5.68748 70.4066 5.80037 70.0709 5.93265C69.7446 6.06122 69.696 6.15869 69.6776 6.21794L69.6776 6.21795C69.6575 6.28263 69.6452 6.40155 69.8408 6.71229C70.0398 7.02842 70.3769 7.42465 70.8767 8.0091L70.8767 8.00911L71.1298 8.30503C71.1454 8.32328 71.1609 8.34136 71.1763 8.35929C71.4084 8.62982 71.6128 8.86815 71.7067 9.17015L76.2239 3.89829ZM76.2239 3.89829L76.4151 4.24121L76.4151 4.24124M76.2239 3.89829L76.4151 4.24124M76.4151 4.24124C76.4273 4.26323 76.4395 4.28508 76.4515 4.30677C76.6243 4.61797 76.7787 4.89591 77.0282 5.08526C77.2806 5.27692 77.5878 5.34584 77.925 5.42149C77.9483 5.42672 77.9718 5.43199 77.9954 5.43733L78.1057 4.94966L77.9954 5.43733L78.3666 5.52132C79.101 5.68748 79.5935 5.80037 79.9291 5.93265C80.2554 6.06123 80.304 6.1587 80.3224 6.21794L80.7999 6.06947L80.3224 6.21795C80.3425 6.28264 80.3549 6.40155 80.1593 6.71229C79.9602 7.02842 79.6231 7.42465 79.1233 8.00909L79.1233 8.00912M76.4151 4.24124L79.1233 8.00912M79.1233 8.00912L78.8702 8.30503C78.8546 8.32333 78.839 8.34145 78.8236 8.35943C78.5916 8.62987 78.3872 8.86819 78.2933 9.17013L78.2932 9.17026M79.1233 8.00912L78.2932 9.17026M78.2932 9.17026C78.2001 9.47017 78.231 9.7846 78.2665 10.1459C78.2688 10.1699 78.2712 10.194 78.2736 10.2184L78.2736 10.2185M78.2932 9.17026L78.2736 10.2185M78.2736 10.2185L78.3119 10.6132C78.3873 11.3924 78.4375 11.9221 78.4205 12.3021C78.4037 12.6812 78.3241 12.7634 78.2822 12.7952C78.2484 12.8208 78.1669 12.8749 77.8274 12.7776C77.4815 12.6785 77.0193 12.4673 76.3317 12.1507C76.3317 12.1507 76.3316 12.1507 76.3316 12.1506L75.9841 11.9906L75.9841 11.9906M78.2736 10.2185L75.9841 11.9906M75.9841 11.9906C75.9614 11.9802 75.939 11.9698 75.9166 11.9594C75.6033 11.8144 75.3152 11.6811 75 11.6811C74.6848 11.6811 74.3967 11.8144 74.0834 11.9594C74.061 11.9698 74.0386 11.9802 74.0159 11.9906L74.0159 11.9906M75.9841 11.9906L74.0159 11.9906M74.0159 11.9906L73.6684 12.1506C72.9807 12.4672 72.5185 12.6785 72.1726 12.7776C71.833 12.8749 71.7516 12.8208 71.7178 12.7952L71.4298 13.1746L71.7178 12.7952C71.6759 12.7633 71.5964 12.6812 71.5795 12.3021C71.5626 11.9221 71.6127 11.3924 71.6882 10.6133L71.1905 10.565M74.0159 11.9906L71.1905 10.565M71.1905 10.565L71.6882 10.6132L71.7264 10.2184M71.1905 10.565L71.7264 10.2184M71.7264 10.2184C71.7288 10.1941 71.7312 10.1699 71.7335 10.1459M71.7264 10.2184L71.7335 10.1459M71.7335 10.1459C71.7691 9.78466 71.8 9.47015 71.7067 9.17016L71.7335 10.1459Z" stroke="#828282"/>
</svg>
