<svg width="70" height="72" viewBox="0 0 70 72" fill="none" xmlns="http://www.w3.org/2000/svg">
<path d="M48.2968 49.6726C48.5281 49.7593 48.9039 49.8749 49.3375 49.846C50.0312 49.8171 50.6672 49.528 51.1297 49.0655C51.65 48.5452 51.9101 47.8515 51.9101 47.1288C51.8523 42.764 54.6273 38.9483 58.7609 37.6476C59.05 37.5608 59.339 37.4163 59.5992 37.214C60.1773 36.7804 60.5531 36.1444 60.6398 35.4796C60.7554 34.7569 60.582 34.0343 60.1484 33.4272C57.5468 29.9296 57.5179 25.2179 60.1195 21.7202L60.4375 21.3155L60.582 20.8819C60.8132 20.1882 60.7265 19.4366 60.4086 18.8585C60.0906 18.1937 59.5125 17.7022 58.8187 17.4999C54.6851 16.1702 51.9101 12.3835 51.9679 8.04756C51.9679 7.70068 51.9101 7.41162 51.8234 7.12256C51.5922 6.45771 51.1007 5.90849 50.4359 5.56162C49.8 5.27256 49.0773 5.21474 48.4125 5.44599C47.4007 5.79287 46.3312 5.96631 45.2617 5.96631C42.082 5.96631 39.0758 4.43428 37.2547 1.83271C37.0523 1.57256 36.8211 1.34131 36.6187 1.19678C35.4047 0.329587 33.7281 0.61865 32.8609 1.83271C31.0109 4.43428 28.0336 5.96631 24.8539 5.96631C23.7554 5.96631 22.7148 5.79287 21.732 5.44599C20.807 5.12803 19.6219 5.35928 18.9281 6.08193C18.4078 6.60224 18.1476 7.296 18.1476 7.98975C18.2054 12.3546 15.4304 16.1702 11.2969 17.4421C10.9789 17.5288 10.7187 17.6733 10.4297 17.8757C9.24451 18.7718 9.01326 20.4483 9.88045 21.6624C12.482 25.1601 12.482 29.8718 9.88045 33.3983C9.70701 33.6296 9.56248 33.9187 9.47576 34.1788C9.27342 34.8726 9.33123 35.5663 9.6492 36.2601C9.99607 36.896 10.5742 37.3585 11.2101 37.5608C15.3726 38.8905 18.1187 42.7062 18.0609 46.9843C18.032 47.3312 18.0898 47.6491 18.2054 47.9671C18.4367 48.6319 18.9281 49.1812 19.5929 49.528C20.2578 49.8171 20.9515 49.8749 21.6164 49.6437C22.657 49.2968 23.7554 49.1233 24.825 49.1233C28.0336 49.1233 30.9242 50.6265 32.8031 53.2569C32.9765 53.4882 33.2078 53.7194 33.439 53.8929C33.9015 54.2108 34.4508 54.3843 35 54.3843C35.1445 54.3843 35.3179 54.3843 35.4625 54.3554C36.1851 54.2398 36.7922 53.8351 37.1968 53.2569C39.7117 49.7593 44.1632 48.2851 48.2968 49.6726ZM34.9711 51.5226C32.6008 48.2562 28.814 46.3194 24.7961 46.3194C23.4664 46.3194 22.1078 46.5218 20.8648 46.9554C20.8648 41.4632 17.3672 36.6358 12.1929 34.9882C15.4304 30.5366 15.4304 24.6108 12.2219 20.1593C17.425 18.4538 20.8937 13.6843 20.9226 8.19209C22.1656 8.59678 23.4664 8.79912 24.7961 8.79912C28.814 8.79912 32.6297 6.8624 35 3.6249C37.3703 6.8624 41.1859 8.79912 45.2328 8.79912C46.5914 8.79912 47.9211 8.59678 49.1062 8.16318C49.1062 13.5976 52.5461 18.3671 57.7492 20.1304C54.5406 24.5819 54.5406 30.4788 57.7492 34.9593C52.5461 36.6648 49.1062 41.4343 49.0773 46.9265C43.8453 45.2499 38.2375 47.071 34.9711 51.5226Z" fill="#0B6BC4"/>
<path d="M46.6781 25.6227C42.2554 23.7727 38.7867 20.3328 36.9078 15.9102C36.5898 15.1297 35.8094 14.6094 34.9711 14.6094C34.1328 14.6094 33.3523 15.1297 33.0344 15.8813C31.1555 20.275 27.7156 23.7149 23.3219 25.5938C22.5414 25.9117 22.0211 26.6633 22.0211 27.5016C22.0211 28.3399 22.5125 29.0914 23.293 29.4383C27.5422 31.2883 31.0687 34.8727 33.0055 39.2664C33.3523 40.0469 34.1039 40.5383 34.9133 40.5383C35.7515 40.5383 36.5031 40.0469 36.8211 39.2664C38.6711 34.9883 42.2554 31.4328 46.6781 29.4672C47.4297 29.1203 47.9211 28.3688 47.9211 27.5305C47.95 26.6922 47.4586 25.9406 46.6781 25.6227ZM34.9422 36.7516C32.8609 32.8203 29.6523 29.5828 25.8367 27.5305C29.768 25.507 32.9476 22.3563 34.9711 18.425C36.9945 22.3852 40.2031 25.5649 44.1633 27.5594C40.2031 29.6695 36.9656 32.907 34.9422 36.7516Z" fill="#0B6BC4"/>
<path d="M26.5015 53.575C25.8367 53.1414 24.9695 53.3438 24.5359 53.9797L16.9625 65.5711L13.1758 57.7953L5.28437 57.7664L13.2047 45.6258C13.6383 44.9609 13.4359 44.0938 12.8 43.6602C12.1351 43.2266 11.268 43.4289 10.8344 44.0648L0.0523376 60.5992L11.4125 60.6281L16.6156 71.2946L26.9062 55.5406C27.3398 54.8758 27.1664 53.9797 26.5015 53.575Z" fill="#0B6BC4"/>
<path d="M59.1367 44.0646C58.7031 43.3998 57.836 43.2264 57.1711 43.66C56.5063 44.0936 56.3328 44.9607 56.7664 45.6256L64.7156 57.7662L56.7953 57.7951L53.0086 65.5709L45.4352 53.9795C45.0016 53.3146 44.1344 53.1412 43.4696 53.5748C42.8047 54.0084 42.6313 54.8756 43.0649 55.5404L53.3844 71.2943L58.5875 60.6279L69.9477 60.599L59.1367 44.0646Z" fill="#0B6BC4"/>
</svg>
