<svg width="48" height="48" viewBox="0 0 48 48" fill="none" xmlns="http://www.w3.org/2000/svg">
<path fill-rule="evenodd" clip-rule="evenodd" d="M22.1496 15.0167C19.4924 13.4479 16.5 15.5813 16.5 18.4263V29.5736C16.5 32.4186 19.4924 34.552 22.1496 32.9832L31.59 27.4096C34.1366 25.906 34.1366 22.094 31.59 20.5904L22.1496 15.0167ZM19.5 18.4263C19.5 18.0294 19.6923 17.7517 19.9189 17.61C20.1382 17.4728 20.3838 17.458 20.6244 17.6001L30.0648 23.1738C30.33 23.3304 30.5 23.6296 30.5 24C30.5 24.3704 30.33 24.6696 30.0648 24.8262L20.6244 30.4C20.3838 30.542 20.1382 30.5272 19.9189 30.39C19.6923 30.2484 19.5 29.9706 19.5 29.5736V18.4263Z" fill="white"/>
<path fill-rule="evenodd" clip-rule="evenodd" d="M24 2.5C12.1259 2.5 2.5 12.1259 2.5 24C2.5 35.8742 12.1259 45.5 24 45.5C35.8742 45.5 45.5 35.8742 45.5 24C45.5 12.1259 35.8742 2.5 24 2.5ZM5.5 24C5.5 13.7827 13.7827 5.5 24 5.5C34.2172 5.5 42.5 13.7827 42.5 24C42.5 34.2172 34.2172 42.5 24 42.5C13.7827 42.5 5.5 34.2172 5.5 24Z" fill="white"/>
</svg>
